<?xml version="1.0" encoding="UTF-8"?> <svg xmlns="http://www.w3.org/2000/svg" width="193" height="32" viewBox="0 0 193 32" fill="none"><path d="M9.24892 9.79684C16.0041 9.79684 20.4641 14.086 20.4641 20.5956C20.4641 27.1051 16.0041 31.3943 9.24892 31.3943H0.34433V9.79684H9.24892ZM4.65077 13.825V27.37H9.20094C13.753 27.37 15.96 24.5163 15.96 20.5956C15.96 16.6749 13.7549 13.8231 9.20094 13.8231H4.65077V13.825Z" fill="black"></path><path d="M27.44 11.5547C27.44 13.0055 26.3135 14.1167 24.8627 14.1167C23.4118 14.1167 22.3026 13.0055 22.3026 11.5547C22.3026 10.1039 23.4138 8.96393 24.8627 8.96393C26.3116 8.96393 27.44 10.1058 27.44 11.5547ZM26.9008 31.3943H22.8726V16.4446H26.9008V31.3943Z" fill="black"></path><path d="M40.6203 20.6109C39.4324 20.0256 37.5344 19.4076 35.8552 19.3923C34.3276 19.3923 33.5561 19.9315 33.5561 20.751C33.5561 21.6146 34.6347 21.8314 35.9934 22.031L37.3195 22.2325C40.5589 22.7257 42.3648 24.1766 42.3648 26.7079C42.3648 29.7938 39.8354 31.7839 35.4983 31.7839C33.464 31.7839 30.7926 31.3981 28.8505 30.026L30.4376 26.9708C31.7196 27.819 33.276 28.437 35.5309 28.437C37.3982 28.437 38.2925 27.9111 38.2925 27.0322C38.2925 26.3068 37.5363 25.9057 35.8072 25.66L34.5886 25.4912C31.1342 25.0133 29.4205 23.5011 29.4205 20.9563C29.4205 17.8858 31.7963 16.0646 35.7286 16.0646C38.1197 16.0646 39.987 16.5136 41.9771 17.4847L40.6203 20.6167V20.6109Z" fill="black"></path><path d="M53.7642 20.0256H48.3504V25.4854C48.3504 27.3527 49.3387 28.032 50.5862 28.032C51.5438 28.032 52.5763 27.5542 53.3957 27.0591L54.8753 30.2064C53.5646 31.1026 52.0543 31.78 49.9241 31.78C46.2202 31.78 44.3242 29.6825 44.3242 25.8097V12.0019H48.3523V16.4446H53.7661V20.0256H53.7642Z" fill="black"></path><path d="M66.6202 16.3678L66.0195 20.3634C65.3555 20.0697 64.3998 19.8855 63.5823 19.8855C61.715 19.8855 60.435 21.0274 60.435 23.2478V31.3943H56.4068V16.4446H60.3102V18.0796C61.2506 16.6768 62.6842 16.0435 64.5207 16.0435C65.3843 16.0435 66.0637 16.1663 66.6183 16.3678H66.6202Z" fill="black"></path><path d="M72.8573 11.5547C72.8573 13.0055 71.7308 14.1167 70.2799 14.1167C68.8291 14.1167 67.7198 13.0055 67.7198 11.5547C67.7198 10.1039 68.831 8.96393 70.2799 8.96393C71.7288 8.96393 72.8573 10.1058 72.8573 11.5547ZM72.318 31.3943H68.2898V16.4446H72.318V31.3943Z" fill="black"></path><path d="M90.4457 23.9137C90.4457 28.4024 87.3272 31.7819 83.2108 31.7819C81.1439 31.7819 79.7084 30.9491 78.7354 29.7458V31.3962H74.8013V9.17886H78.8141V18.0029C79.7871 16.8303 81.188 16.0435 83.1954 16.0435C87.3291 16.0435 90.4457 19.423 90.4457 23.9117V23.9137ZM78.6126 23.9137C78.6126 26.2741 80.1709 28.032 82.4546 28.032C84.7384 28.032 86.312 26.1955 86.312 23.9137C86.312 21.6319 84.8324 19.7953 82.4546 19.7953C80.0769 19.7953 78.6126 21.5532 78.6126 23.9137Z" fill="black"></path><path d="M106.53 25.0229C106.53 29.7439 103.198 31.78 99.4655 31.78C95.7328 31.78 92.3821 29.7439 92.3821 25.0229V16.4445H96.4103V24.6679C96.4103 27.0591 97.721 28.032 99.4655 28.032C101.21 28.032 102.521 27.0591 102.521 24.6679V16.4445H106.53V25.0229Z" fill="black"></path><path d="M121.468 19.3923L114.095 27.7998H121.639V31.3943H108.554V28.4945L116.098 20.0256H108.817V16.4445H121.468V19.3923Z" fill="black"></path><path d="M138.941 23.9137C138.941 28.4178 135.502 31.782 130.841 31.782C126.179 31.782 122.773 28.4197 122.773 23.9137C122.773 19.4077 126.197 16.0454 130.841 16.0454C135.485 16.0454 138.941 19.4077 138.941 23.9137ZM126.876 23.9137C126.876 26.3356 128.574 28.0321 130.841 28.0321C133.107 28.0321 134.823 26.3356 134.823 23.9137C134.823 21.4918 133.109 19.7953 130.841 19.7953C128.572 19.7953 126.876 21.4918 126.876 23.9137Z" fill="black"></path><path d="M155.134 21.8756V31.3943H151.106V23.171C151.106 21.012 150.028 19.8241 148.191 19.8241C146.462 19.8241 145.029 20.9506 145.029 23.2036V31.3962H141V16.4465H144.919V18.2063C145.984 16.6173 147.619 16.0454 149.316 16.0454C152.711 16.0454 155.133 18.4059 155.133 21.8775L155.134 21.8756Z" fill="black"></path><path d="M192.089 22.2345V11.3417C192.089 5.54605 187.373 0.830841 181.578 0.830841C178.697 0.830841 176.085 1.99573 174.185 3.87836C174.172 3.88988 166.235 11.8292 166.223 11.8407C164.34 13.7406 163.176 16.3544 163.176 19.233V30.1239C163.176 30.6862 163.584 31.3905 164.442 31.3905H182.931C183.299 31.3905 183.633 31.2101 183.829 31.0163L191.712 23.1307C191.998 22.814 192.087 22.5895 192.087 22.2326L192.089 22.2345ZM173.686 11.2554C178.085 11.2554 181.664 14.8345 181.664 19.233V20.966H173.6V11.3398C173.6 11.311 173.6 11.2841 173.602 11.2554C173.631 11.2554 173.658 11.2534 173.686 11.2534V11.2554ZM172.857 23.5011H181.664V28.8573H167.499L172.855 23.5011H172.857ZM184.199 23.5011H187.765L184.199 27.0668V23.5011ZM189.555 11.3417V20.9679H184.199V19.2349C184.199 13.5563 179.674 8.91982 174.041 8.73175C175.126 5.61322 178.095 3.36596 181.578 3.36596C185.976 3.36596 189.555 6.94507 189.555 11.3436V11.3417ZM171.067 11.6987V21.7087L165.711 27.0648V19.2311C165.711 15.7499 167.952 12.7849 171.067 11.6967V11.6987Z" fill="#0032FF"></path></svg> 