<svg width="193" height="32" viewBox="0 0 193 32" fill="none" xmlns="http://www.w3.org/2000/svg">
<g clip-path="url(#clip0_1018_132)">
<path d="M9.24932 9.79688C16.0045 9.79688 20.4645 14.086 20.4645 20.5956C20.4645 27.1051 16.0045 31.3943 9.24932 31.3943H0.344727V9.79688H9.24932ZM4.65117 13.825V27.37H9.20134C13.7534 27.37 15.9604 24.5163 15.9604 20.5956C15.9604 16.6749 13.7553 13.8231 9.20134 13.8231H4.65117V13.825Z" fill="white"/>
<path d="M27.4401 11.5546C27.4401 13.0054 26.3136 14.1166 24.8628 14.1166C23.4119 14.1166 22.3027 13.0054 22.3027 11.5546C22.3027 10.1038 23.4139 8.96387 24.8628 8.96387C26.3117 8.96387 27.4401 10.1057 27.4401 11.5546ZM26.9009 31.3942H22.8727V16.4445H26.9009V31.3942Z" fill="white"/>
<path d="M40.6204 20.6108C39.4325 20.0255 37.5345 19.4075 35.8553 19.3922C34.3277 19.3922 33.5562 19.9314 33.5562 20.7509C33.5562 21.6145 34.6348 21.8313 35.9935 22.0309L37.3196 22.2324C40.559 22.7256 42.3649 24.1765 42.3649 26.7078C42.3649 29.7937 39.8355 31.7838 35.4984 31.7838C33.4641 31.7838 30.7927 31.398 28.8506 30.0259L30.4377 26.9707C31.7197 27.8189 33.2761 28.4369 35.531 28.4369C37.3983 28.4369 38.2926 27.911 38.2926 27.0321C38.2926 26.3067 37.5364 25.9056 35.8073 25.6599L34.5887 25.4911C31.1343 25.0132 29.4206 23.501 29.4206 20.9562C29.4206 17.8857 31.7964 16.0645 35.7287 16.0645C38.1198 16.0645 39.9871 16.5135 41.9772 17.4846L40.6204 20.6166V20.6108Z" fill="white"/>
<path d="M53.7642 20.0257H48.3504V25.4855C48.3504 27.3528 49.3387 28.0321 50.5862 28.0321C51.5438 28.0321 52.5763 27.5543 53.3957 27.0592L54.8753 30.2065C53.5646 31.1027 52.0543 31.7801 49.9241 31.7801C46.2202 31.7801 44.3242 29.6826 44.3242 25.8098V12.002H48.3523V16.4447H53.7661V20.0257H53.7642Z" fill="white"/>
<path d="M66.6206 16.3682L66.0199 20.3638C65.3559 20.0701 64.4002 19.8859 63.5827 19.8859C61.7154 19.8859 60.4354 21.0278 60.4354 23.2482V31.3947H56.4072V16.445H60.3106V18.08C61.251 16.6772 62.6846 16.0439 64.5211 16.0439C65.3847 16.0439 66.0641 16.1667 66.6187 16.3682H66.6206Z" fill="white"/>
<path d="M72.8572 11.5546C72.8572 13.0054 71.7307 14.1166 70.2798 14.1166C68.829 14.1166 67.7197 13.0054 67.7197 11.5546C67.7197 10.1038 68.8309 8.96387 70.2798 8.96387C71.7287 8.96387 72.8572 10.1057 72.8572 11.5546ZM72.3179 31.3942H68.2897V16.4445H72.3179V31.3942Z" fill="white"/>
<path d="M90.4462 23.9136C90.4462 28.4023 87.3277 31.7818 83.2113 31.7818C81.1444 31.7818 79.7089 30.949 78.7359 29.7457V31.3961H74.8018V9.17871H78.8146V18.0028C79.7876 16.8302 81.1885 16.0434 83.1959 16.0434C87.3296 16.0434 90.4462 19.4229 90.4462 23.9116V23.9136ZM78.6131 23.9136C78.6131 26.274 80.1714 28.0319 82.4551 28.0319C84.7389 28.0319 86.3125 26.1954 86.3125 23.9136C86.3125 21.6318 84.8329 19.7952 82.4551 19.7952C80.0774 19.7952 78.6131 21.5531 78.6131 23.9136Z" fill="white"/>
<path d="M106.53 25.0227C106.53 29.7437 103.198 31.7798 99.4652 31.7798C95.7325 31.7798 92.3818 29.7437 92.3818 25.0227V16.4443H96.41V24.6677C96.41 27.0589 97.7207 28.0318 99.4652 28.0318C101.21 28.0318 102.521 27.0589 102.521 24.6677V16.4443H106.53V25.0227Z" fill="white"/>
<path d="M121.468 19.3921L114.095 27.7996H121.639V31.3941H108.554V28.4943L116.098 20.0254H108.817V16.4443H121.468V19.3921Z" fill="white"/>
<path d="M138.941 23.9132C138.941 28.4173 135.502 31.7815 130.841 31.7815C126.179 31.7815 122.773 28.4192 122.773 23.9132C122.773 19.4072 126.197 16.0449 130.841 16.0449C135.485 16.0449 138.941 19.4072 138.941 23.9132ZM126.876 23.9132C126.876 26.3351 128.574 28.0316 130.841 28.0316C133.107 28.0316 134.823 26.3351 134.823 23.9132C134.823 21.4913 133.109 19.7948 130.841 19.7948C128.572 19.7948 126.876 21.4913 126.876 23.9132Z" fill="white"/>
<path d="M155.134 21.8751V31.3938H151.106V23.1705C151.106 21.0115 150.028 19.8236 148.191 19.8236C146.462 19.8236 145.029 20.9501 145.029 23.2031V31.3957H141V16.446H144.919V18.2058C145.984 16.6168 147.619 16.0449 149.316 16.0449C152.711 16.0449 155.133 18.4054 155.133 21.877L155.134 21.8751Z" fill="white"/>
<path d="M192.089 22.2347V11.3419C192.089 5.54626 187.373 0.831055 181.578 0.831055C178.697 0.831055 176.085 1.99594 174.185 3.87857C174.172 3.89009 166.235 11.8294 166.223 11.8409C164.34 13.7408 163.176 16.3546 163.176 19.2332V30.1241C163.176 30.6864 163.584 31.3907 164.442 31.3907H182.931C183.299 31.3907 183.633 31.2103 183.829 31.0165L191.712 23.1309C191.998 22.8142 192.087 22.5897 192.087 22.2328L192.089 22.2347ZM173.686 11.2556C178.085 11.2556 181.664 14.8347 181.664 19.2332V20.9662H173.6V11.34C173.6 11.3112 173.6 11.2843 173.602 11.2556C173.631 11.2556 173.658 11.2536 173.686 11.2536V11.2556ZM172.857 23.5013H181.664V28.8575H167.499L172.855 23.5013H172.857ZM184.199 23.5013H187.765L184.199 27.067V23.5013ZM189.555 11.3419V20.9681H184.199V19.2351C184.199 13.5565 179.674 8.92003 174.041 8.73196C175.126 5.61343 178.095 3.36617 181.578 3.36617C185.976 3.36617 189.555 6.94528 189.555 11.3438V11.3419ZM171.067 11.6989V21.7089L165.711 27.065V19.2313C165.711 15.7501 167.952 12.7851 171.067 11.6969V11.6989Z" fill="#0032FF"/>
</g>
<defs>
<clipPath id="clip0_1018_132">
<rect width="193" height="32" fill="white"/>
</clipPath>
</defs>
</svg>
